<svg width="20" height="20" viewBox="0 0 20 20" fill="none" xmlns="http://www.w3.org/2000/svg">
<g id="iconamoon:file-document-fill">
<path id="Vector" fill-rule="evenodd" clip-rule="evenodd" d="M3.875 2C3.64294 2 3.42038 2.08429 3.25628 2.23431C3.09219 2.38434 3 2.58783 3 2.8V15.6C3 16.2365 3.27656 16.847 3.76884 17.2971C4.26113 17.7471 4.92881 18 5.625 18H14.375C15.0712 18 15.7389 17.7471 16.2312 17.2971C16.7234 16.847 17 16.2365 17 15.6V6.8C17 6.58784 16.9077 6.38439 16.7436 6.2344L12.3686 2.2344C12.2046 2.08436 11.982 2.00005 11.75 2H3.875ZM11.75 3.9312L14.8878 6.8H11.75V3.9312ZM6.5 10.8C6.5 10.5878 6.59219 10.3843 6.75628 10.2343C6.92038 10.0843 7.14294 10 7.375 10H12.625C12.8571 10 13.0796 10.0843 13.2437 10.2343C13.4078 10.3843 13.5 10.5878 13.5 10.8C13.5 11.0122 13.4078 11.2157 13.2437 11.3657C13.0796 11.5157 12.8571 11.6 12.625 11.6H7.375C7.14294 11.6 6.92038 11.5157 6.75628 11.3657C6.59219 11.2157 6.5 11.0122 6.5 10.8ZM6.5 14C6.5 13.7878 6.59219 13.5843 6.75628 13.4343C6.92038 13.2843 7.14294 13.2 7.375 13.2H12.625C12.8571 13.2 13.0796 13.2843 13.2437 13.4343C13.4078 13.5843 13.5 13.7878 13.5 14C13.5 14.2122 13.4078 14.4157 13.2437 14.5657C13.0796 14.7157 12.8571 14.8 12.625 14.8H7.375C7.14294 14.8 6.92038 14.7157 6.75628 14.5657C6.59219 14.4157 6.5 14.2122 6.5 14Z" fill="#676767"/>
</g>
</svg>
