<svg width="16" height="16" viewBox="0 0 16 16" fill="none" xmlns="http://www.w3.org/2000/svg">
<g id="Frame" clip-path="url(#clip0_7733_24837)">
<path id="Vector" d="M9.29684 13.2319C8.65335 13.1666 8.243 12.8588 8.23367 12.1874C8.21502 11.376 8.69998 11.0403 9.45539 11.0309C10.1642 11.0216 10.4533 11.4133 10.416 12.0941C10.3787 12.7935 10.0149 13.1852 9.29684 13.2319Z" fill="#111111"/>
<path id="Vector_2" d="M2.39352 11.0304C1.21841 11.0178 0.778528 10.4398 0.772244 8.88796C0.76596 7.46178 1.84681 6.3309 3.17902 6.36859C4.45467 6.40629 5.45383 7.50576 5.43498 8.84398C5.40984 10.2827 4.34156 11.0492 2.39352 11.0304Z" fill="#111111"/>
<path id="Vector_3" d="M13.8324 11.7783C14.574 11.2726 15.2962 11.3421 15.875 12.0257C16.4422 12.6948 16.2648 13.4311 15.6658 13.9665C15.0376 14.5251 14.2963 14.5065 13.7334 13.8579C13.1474 13.18 13.1833 12.4607 13.8324 11.7783Z" fill="#111111"/>
<path id="Vector_4" d="M13.3366 5.43506C14.2319 5.50034 14.7541 6.00395 14.7821 6.89925C14.8101 7.7759 14.2132 8.2422 13.4112 8.28883C12.5719 8.33546 12.003 7.85983 11.9657 7.00183C11.9284 6.10653 12.404 5.56562 13.3366 5.43506Z" fill="#111111"/>
<path id="Vector_5" d="M13.8109 11.9635C14.9363 11.9559 15.6985 12.5222 15.694 13.3715C15.6895 14.1832 14.9722 14.7456 13.9095 14.7607C12.6093 14.7796 11.9636 14.2209 11.9636 13.0771C11.9592 12.3221 12.5376 11.971 13.8109 11.9635Z" fill="#111111"/>
<path id="Vector_6" d="M7.5712 3.63808C8.5212 4.24144 8.85508 5.13033 8.39115 5.84183C7.94766 6.52159 7.03995 6.6057 6.13861 6.0427C5.03549 5.35412 4.79551 4.53473 5.4152 3.57331C5.82047 2.93629 6.49683 2.95456 7.5712 3.63808Z" fill="#111111"/>
<path id="Vector_7" d="M10.6666 0.707636C12.0005 0.178111 13.1681 0.498432 13.5557 1.50983C13.9258 2.47638 13.3335 3.4766 12.0777 3.98606C10.5413 4.60993 9.51569 4.24466 8.98661 2.88543C8.63206 1.99032 9.15697 1.3056 10.6666 0.707636Z" fill="#111111"/>
<path id="Vector_8" d="M9.14782 7.30037C10.2732 7.29282 11.0354 7.85907 11.0309 8.70844C11.0265 9.52007 10.3091 10.0825 9.24646 10.0976C7.9462 10.1165 7.30056 9.55782 7.30056 8.41399C7.29608 7.65899 7.87447 7.30792 9.14782 7.30037Z" fill="#111111"/>
<path id="Vector_9" d="M13.8109 6.36775C14.9363 6.3602 15.6985 6.92645 15.694 7.77583C15.6895 8.58745 14.9722 9.14993 13.9095 9.16503C12.6093 9.1839 11.9636 8.6252 11.9636 7.48138C11.9592 6.72638 12.5376 6.3753 13.8109 6.36775Z" fill="#111111"/>
<path id="Vector_10" d="M2.57303 5.43501C1.48468 5.33083 0.790665 4.83969 0.774891 3.76813C0.743345 2.47332 0.965039 1.17879 2.84118 1.92265C4.71731 2.66651 4.5289 2.53285 4.46581 3.6193C4.40272 4.73551 3.78757 5.36059 2.57303 5.43501Z" fill="#111111"/>
<path id="Vector_11" d="M4.28614 12.8128C5.28712 12.2984 6.22281 12.4599 6.60195 13.22C6.96407 13.9464 6.57755 14.772 5.636 15.2648C4.48407 15.8682 3.65582 15.6608 3.13985 14.6399C2.79528 13.9681 3.15311 13.3939 4.28614 12.8128Z" fill="#111111"/>
</g>
<defs>
<clipPath id="clip0_7733_24837">
<rect width="16.9035" height="16.9035" fill="white" transform="translate(-0.51001 -0.510254)"/>
</clipPath>
</defs>
</svg>
