<svg width="1039" height="195" viewBox="0 0 1039 195" fill="none" xmlns="http://www.w3.org/2000/svg">
<g clip-path="url(#clip0_1594_38678)">
<path d="M262.604 5.89844H243.921C242.883 5.89844 241.845 6.59239 241.153 7.28634L220.739 35.3913L219.702 36.7792L218.664 35.3913L198.25 7.28634C197.558 6.24541 196.52 5.89844 195.482 5.89844H177.491C176.107 5.89844 175.069 6.59239 174.377 7.98029C173.685 9.02121 174.031 10.7561 174.723 11.797L207.246 56.5568L207.592 56.9038V57.2508V95.765C207.592 96.8059 207.938 97.4999 208.63 98.1938C209.322 98.8878 210.36 99.2347 211.052 99.2347H230.081C231.119 99.2347 231.811 98.8878 232.503 98.1938C233.195 97.4999 233.541 96.4589 233.541 95.765V56.2098L233.887 55.8629L265.718 11.797C266.41 10.7561 266.41 9.02121 265.718 7.98029C265.026 6.59239 263.988 5.89844 262.604 5.89844Z" fill="black"/>
<path d="M170.918 78.4159H130.783V9.71487C130.783 8.67394 130.437 7.97999 129.745 7.28604C129.053 6.59209 128.015 6.24512 127.323 6.24512H108.294C107.256 6.24512 106.564 6.59209 105.872 7.28604C105.18 7.97999 104.834 9.02092 104.834 9.71487V95.4177C104.834 96.4586 105.18 97.1526 105.872 97.8465C106.564 98.5405 107.602 98.8875 108.294 98.8875H170.918C171.956 98.8875 172.647 98.5405 173.339 97.8465C174.031 97.1526 174.377 96.1117 174.377 95.4177V82.2327C174.377 81.1917 174.031 80.4978 173.339 79.8038C172.647 79.1099 171.956 78.4159 170.918 78.4159Z" fill="black"/>
<path d="M74.0411 15.6137C71.2732 12.8379 67.8134 10.4091 63.6615 8.67424C58.8177 6.93936 53.6279 5.89844 47.7461 5.89844H4.84366C4.15169 5.89844 3.11373 6.24541 2.42175 6.93936C1.72978 7.63331 1.38379 8.67424 1.38379 9.71516V95.418C1.38379 96.4589 1.72978 97.1529 2.42175 97.8468C3.11373 98.5408 4.15169 98.8878 4.84366 98.8878H24.219C25.2569 98.8878 25.9489 98.5408 26.6409 97.8468C27.3328 97.1529 27.6788 96.4589 27.6788 95.418V63.1493H47.7461C53.6279 63.1493 59.1637 62.4554 63.6615 60.3735C67.8134 58.6386 71.6192 56.5568 74.0411 53.434C76.463 50.6582 78.539 47.5354 79.5769 44.4127C80.6149 41.2899 81.3069 37.8201 81.3069 34.3504C81.3069 30.8806 80.6149 27.4109 79.5769 24.2881C78.539 21.5123 76.463 18.3895 74.0411 15.6137ZM52.5899 42.6778C51.206 44.4127 49.476 45.8006 46.3621 46.4945C43.9402 47.1885 40.1344 47.5354 34.9446 47.5354H27.6788V46.4945V23.5942V21.8593H34.9446C42.5563 21.8593 47.4001 22.9002 49.822 24.6351C51.8979 26.023 54.3199 28.1048 54.3199 35.0443C54.6658 38.5141 53.6279 40.9429 52.5899 42.6778Z" fill="black"/>
<path d="M981.22 6.93936C980.528 6.24541 979.49 5.89844 978.798 5.89844H889.88C888.842 5.89844 888.15 6.24541 887.458 6.93936C886.766 7.63331 886.42 8.67424 886.42 9.36819V22.9002C886.42 23.9411 886.766 24.6351 887.458 25.329C888.15 26.023 889.188 26.37 889.88 26.37H921.019V27.4109V94.7241C921.019 95.765 921.365 96.4589 922.057 97.1529C922.749 97.8468 923.787 98.1938 924.479 98.1938H943.508C944.546 98.1938 945.238 97.8468 945.93 97.1529C946.622 96.4589 946.968 95.418 946.968 94.7241V26.7169H948.006H978.107C979.145 26.7169 979.836 26.37 980.528 25.676C981.22 24.9821 981.566 23.9411 981.566 23.2472V9.71516C982.258 8.67424 981.912 7.63331 981.22 6.93936Z" fill="black"/>
<path d="M858.74 5.89844H839.711C838.673 5.89844 837.981 6.24541 837.289 6.93936C836.597 7.63331 836.251 8.67424 836.251 9.36819V60.3735L834.175 58.2917L786.083 6.93936C785.391 6.24541 784.353 5.89844 783.315 5.89844H764.632C763.594 5.89844 762.902 6.24541 762.21 6.93936C761.518 7.63331 761.172 8.67424 761.172 9.36819V95.071C761.172 96.112 761.518 96.8059 762.21 97.4999C762.902 98.1938 763.94 98.5408 764.632 98.5408H783.661C784.699 98.5408 785.391 98.1938 786.083 97.4999C786.775 96.8059 787.121 95.765 787.121 95.071V44.0657L789.197 46.1475L837.289 97.8468C837.981 98.5408 839.019 98.8878 840.057 98.8878H858.74C859.778 98.8878 860.47 98.5408 861.162 97.8468C861.854 97.1529 862.2 96.112 862.2 95.418V9.71516C862.2 8.67424 861.854 7.98029 861.162 7.28634C860.47 6.24541 859.432 5.89844 858.74 5.89844Z" fill="black"/>
<path d="M731.071 82.2327H691.629V59.3323H727.957C728.995 59.3323 729.687 58.9853 730.379 58.2914C731.071 57.5974 731.417 56.5565 731.417 55.8626V46.1473C731.417 45.1063 731.071 44.4124 730.379 43.7184C729.687 43.0245 728.649 42.6775 727.957 42.6775H691.629V22.5529H730.033C731.071 22.5529 731.763 22.206 732.455 21.512C733.147 20.8181 733.493 19.7771 733.493 19.0832V9.71487C733.493 8.67394 733.147 7.97999 732.455 7.28604C731.763 6.59209 730.725 6.24512 730.033 6.24512H669.14C668.102 6.24512 667.41 6.59209 666.718 7.28604C666.026 7.97999 665.68 9.02092 665.68 9.71487V95.4177C665.68 96.4586 666.026 97.1526 666.718 97.8465C667.41 98.5405 668.448 98.8875 669.14 98.8875H731.417C732.455 98.8875 733.147 98.5405 733.839 97.8465C734.531 97.1526 734.877 96.1117 734.877 95.4177V85.7024C734.877 84.6615 734.531 83.9675 733.839 83.2736C733.147 82.5796 732.109 82.2327 731.071 82.2327Z" fill="black"/>
<path d="M393.734 5.89844H374.704C373.666 5.89844 372.628 6.24541 371.936 7.28634L343.911 41.2899L342.873 42.3308L341.835 41.2899L314.157 7.28634C313.465 6.59239 312.427 5.89844 311.389 5.89844H292.359C291.321 5.89844 290.629 6.24541 289.937 6.93936C289.245 7.63331 288.899 8.67424 288.899 9.36819V95.071C288.899 96.112 289.245 96.8059 289.937 97.4999C290.629 98.1938 291.667 98.5408 292.359 98.5408H310.697C311.735 98.5408 312.427 98.1938 313.119 97.4999C313.811 96.8059 314.157 95.765 314.157 95.071V41.6369L316.232 44.0657L339.76 72.8646C340.452 73.5586 341.489 74.2525 342.527 74.2525C343.565 74.2525 344.603 73.9056 345.295 72.8646L368.477 44.0657L370.552 41.6369V95.418C370.552 96.4589 370.898 97.1529 371.59 97.8468C372.282 98.5408 373.32 98.8878 374.012 98.8878H393.042C394.08 98.8878 394.772 98.5408 395.464 97.8468C396.156 97.1529 396.501 96.112 396.501 95.418V9.71516C396.501 8.67424 396.156 7.98029 395.464 7.28634C395.464 6.24541 394.772 5.89844 393.734 5.89844Z" fill="black"/>
<path d="M639.039 5.89873H619.664C618.28 5.89873 616.896 6.93966 616.204 7.98058L595.098 60.0268L594.06 62.8026L593.022 60.0268L572.609 7.98058C571.917 6.59268 570.879 5.55176 569.149 5.55176H549.774C548.39 5.55176 547.352 6.24571 546.66 7.28663C545.968 8.32756 545.968 9.71546 546.314 10.7564L584.373 97.8471C585.065 99.235 586.103 99.929 587.487 99.929H600.288C601.672 99.929 603.056 99.235 603.402 97.8471L642.153 10.7564C642.499 9.71546 642.499 8.32756 641.807 7.28663C641.115 6.59268 640.077 5.89873 639.039 5.89873Z" fill="black"/>
<path d="M1022.39 0C1025.16 0 1027.93 0.69395 1030.7 2.08185C1033.12 3.46975 1035.19 5.5516 1036.58 7.98043C1037.96 10.4093 1038.65 13.1851 1038.65 16.3078C1038.65 19.0836 1037.96 21.8594 1036.58 24.6352C1035.19 27.0641 1033.12 29.1459 1030.7 30.5338C1028.27 31.9217 1025.51 32.6157 1022.39 32.6157C1019.62 32.6157 1016.86 31.9217 1014.09 30.5338C1011.67 29.1459 1009.59 27.0641 1008.21 24.6352C1006.82 22.2064 1006.13 19.4306 1006.13 16.3078C1006.13 13.1851 1006.82 10.7562 1008.21 7.98043C1009.59 5.5516 1011.67 3.46975 1014.09 2.08185C1016.86 0.69395 1019.62 0 1022.39 0ZM1022.39 2.7758C1018.59 2.7758 1015.47 4.1637 1012.7 6.9395C1009.94 9.7153 1008.55 12.8381 1008.55 16.6548C1008.55 20.4715 1009.94 23.5943 1012.7 26.3701C1015.47 29.1459 1018.59 30.5338 1022.39 30.5338C1026.2 30.5338 1029.31 29.1459 1032.08 26.3701C1034.85 23.5943 1036.23 20.4715 1036.23 16.6548C1036.23 12.8381 1034.85 9.7153 1032.08 6.9395C1029.31 4.1637 1026.2 2.7758 1022.39 2.7758ZM1018.93 25.3292H1016.16V7.63345H1022.39C1024.47 7.63345 1026.2 7.63345 1026.89 7.98043C1027.93 8.3274 1028.62 9.02135 1028.97 9.7153C1029.66 10.4093 1029.66 11.4502 1029.66 12.1441C1029.66 13.532 1029.31 14.573 1028.27 15.6139C1027.24 16.6548 1026.2 17.0018 1024.81 17.3488C1025.51 17.6957 1026.2 18.0427 1026.54 18.7367C1027.24 19.4306 1027.93 20.4715 1028.62 21.8594L1030.7 25.3292H1027.24L1025.85 22.5534C1024.81 20.4715 1023.78 19.4306 1023.08 18.7367C1022.39 18.0427 1021.7 17.6957 1020.32 17.6957H1018.59V25.3292H1018.93ZM1018.93 10.0623V15.2669H1022.39C1023.78 15.2669 1024.81 14.9199 1025.51 14.573C1026.2 14.226 1026.54 13.532 1026.54 12.4911C1026.54 11.4502 1026.2 10.7562 1025.51 10.4093C1024.81 10.0623 1023.78 9.7153 1022.05 9.7153H1018.93V10.0623Z" fill="black"/>
<path d="M497.53 32.6152H456.357V73.9053H497.53V32.6152Z" fill="#FFEA53"/>
<path d="M429.716 95.418C429.716 96.4589 430.062 97.1529 430.754 97.8468C430.754 97.8468 432.138 98.8878 433.176 98.8878H443.555C444.939 98.8878 446.323 97.8468 447.015 96.8059L456.357 73.9055V32.6155H477.808L490.956 5.89844H444.593C435.252 5.89844 430.062 11.1031 430.062 20.4714L429.716 95.418ZM509.639 98.8878C518.981 98.8878 524.17 93.6831 524.17 84.3148V9.36819C524.17 8.32726 523.824 7.63331 523.132 6.93936C522.44 6.24541 521.402 5.89844 520.711 5.89844H511.023C509.639 5.89844 508.255 6.93936 507.563 8.32726L497.875 32.6155V73.9055H477.462L465.007 98.8878H509.639Z" fill="black"/>
<path d="M29.7549 166.548C25.6031 163.772 22.4892 162.731 19.3753 162.731C12.4555 162.731 7.95771 167.936 7.95771 175.57C7.95771 183.55 13.1475 188.061 20.7592 188.061C23.8731 188.061 26.987 187.367 30.7929 185.632V192.918C28.371 193.959 23.5271 195 19.3753 195C7.95771 195 0 187.367 0 176.264C0 163.772 7.26574 155.792 18.6833 155.792C23.1812 155.792 25.9491 156.833 29.7549 158.568V166.548Z" fill="#6D6F71"/>
<path d="M51.2064 194.306H43.5947V136.708H51.2064V194.306Z" fill="#6D6F71"/>
<path d="M95.8381 190.836C91.3403 193.959 87.1884 195.347 80.6147 195.347C68.8511 195.347 62.2773 185.632 62.2773 175.222C62.2773 163.772 69.5431 156.139 79.9227 156.139C89.9563 156.139 96.1841 163.078 96.1841 176.957H69.5431C70.581 184.591 75.0789 188.407 82.3446 188.407C86.8424 188.407 91.3403 186.672 95.4921 183.897V190.836H95.8381ZM89.2644 171.753C88.9184 165.854 85.8045 162.384 80.2687 162.384C74.3869 162.384 71.273 165.854 70.2351 171.753H89.2644Z" fill="#6D6F71"/>
<path d="M140.471 192.224C137.011 194.653 135.627 195 133.205 195C130.091 195 128.016 193.959 127.324 191.183C124.21 193.959 120.75 195 117.29 195C111.754 195 107.948 190.489 107.948 185.631C107.948 177.998 114.868 175.916 120.75 173.487L127.324 171.059V168.977C127.324 164.119 124.902 162.384 120.404 162.384C116.252 162.384 112.1 164.466 108.294 168.63V160.302C111.408 156.833 115.214 155.098 120.75 155.098C128.361 155.098 134.589 158.914 134.589 167.589V187.019C134.589 188.407 134.935 189.101 135.973 189.101C136.665 189.101 138.395 188.407 139.779 187.019V192.224H140.471ZM127.67 175.569C121.442 177.651 115.56 180.08 115.56 184.591C115.56 187.713 117.982 189.795 121.096 189.795C123.518 189.795 125.594 188.754 127.67 186.672V175.569Z" fill="#6D6F71"/>
<path d="M160.192 161.343C163.306 157.873 167.458 155.444 171.609 155.444C178.875 155.444 184.411 160.302 184.411 170.711V194.306H176.799V170.711C176.799 165.16 174.031 161.343 169.533 161.343C166.42 161.343 163.652 162.731 160.192 166.895V194.306H152.58V156.485H160.192V161.343Z" fill="#6D6F71"/>
<path d="M259.836 192.224C256.376 194.653 254.992 195 252.571 195C249.457 195 247.381 193.959 246.689 191.183C243.575 193.959 240.115 195 236.655 195C231.119 195 227.313 190.489 227.313 185.631C227.313 177.998 234.233 175.916 240.115 173.487L246.689 171.059V168.977C246.689 164.119 244.267 162.384 239.769 162.384C235.617 162.384 231.465 164.466 227.659 168.63V160.302C230.773 156.833 234.579 155.098 240.115 155.098C247.727 155.098 253.955 158.914 253.955 167.589V187.019C253.955 188.407 254.301 189.101 255.338 189.101C256.03 189.101 257.76 188.407 259.144 187.019V192.224H259.836ZM247.035 175.569C240.807 177.651 234.925 180.08 234.925 184.591C234.925 187.713 237.347 189.795 240.461 189.795C242.883 189.795 244.959 188.754 247.035 186.672V175.569Z" fill="#6D6F71"/>
<path d="M276.097 149.546C273.676 149.546 271.6 147.464 271.6 145.035C271.6 142.606 273.676 140.524 276.097 140.524C278.519 140.524 280.595 142.606 280.595 145.035C280.595 147.464 278.519 149.546 276.097 149.546ZM279.903 194.306H272.292V156.485H279.903V194.306Z" fill="#6D6F71"/>
<path d="M304.468 156.486V165.16C308.274 158.568 311.734 155.792 315.54 155.792C318.654 155.792 321.422 157.18 324.536 160.303L320.384 166.548C317.962 164.466 315.194 162.731 313.464 162.731C308.274 162.731 304.122 167.936 304.122 174.529V194.306H296.511V156.486H304.468Z" fill="#6D6F71"/>
<path d="M394.079 192.224C390.62 194.653 389.236 195 386.814 195C383.7 195 381.624 193.959 380.932 191.183C377.818 193.959 374.358 195 370.898 195C365.362 195 361.557 190.489 361.557 185.631C361.557 177.998 368.476 175.916 374.358 173.487L380.932 171.059V168.977C380.932 164.119 378.51 162.384 374.012 162.384C369.86 162.384 365.708 164.466 361.903 168.63V160.302C365.017 156.833 368.822 155.098 374.358 155.098C381.97 155.098 388.198 158.914 388.198 167.589V187.019C388.198 188.407 388.544 189.101 389.582 189.101C390.274 189.101 392.004 188.407 393.387 187.019V192.224H394.079ZM381.278 175.569C375.05 177.651 369.168 180.08 369.168 184.591C369.168 187.713 371.59 189.795 374.704 189.795C377.126 189.795 379.202 188.754 381.278 186.672V175.569Z" fill="#6D6F71"/>
<path d="M415.185 156.485H427.295V163.078H415.185V182.508C415.185 187.019 418.299 188.407 420.721 188.407C423.489 188.407 426.257 187.366 429.371 185.631V192.571C426.603 193.959 422.797 195 420.375 195C412.071 195 408.265 189.795 408.265 183.202V163.078H401.346V162.384L415.531 148.505V156.485H415.185Z" fill="#6D6F71"/>
<path d="M508.947 179.386L518.635 156.485H526.593L509.985 195H507.563L496.492 168.629L485.42 195H482.998L466.045 156.485H474.003L484.036 179.386L493.724 156.485H499.26L508.947 179.386Z" fill="#6D6F71"/>
<path d="M575.723 175.223C575.723 187.367 567.419 195.347 555.309 195.347C543.546 195.347 535.242 187.02 535.242 175.223C535.242 164.466 543.892 155.792 555.309 155.792C567.073 155.792 575.723 163.772 575.723 175.223ZM543.2 175.223C543.2 183.203 548.044 188.408 555.309 188.408C563.267 188.408 568.111 183.203 568.111 175.223C568.111 167.936 562.575 162.731 555.309 162.731C548.044 162.385 543.2 167.936 543.2 175.223Z" fill="#6D6F71"/>
<path d="M597.866 156.486V165.16C601.672 158.568 605.132 155.792 608.938 155.792C612.052 155.792 614.82 157.18 617.934 160.303L614.128 166.895C611.706 164.813 608.938 163.078 607.208 163.078C602.018 163.078 598.212 168.283 598.212 174.876V194.306H590.601V156.486H597.866Z" fill="#6D6F71"/>
<path d="M636.271 194.306H628.659V136.708H636.271V194.306ZM645.959 175.222L665.334 194.653H655.3L636.271 175.222L652.878 156.486H661.874L645.959 175.222Z" fill="#6D6F71"/>
</g>
<defs>
<clipPath id="clip0_1594_38678">
<rect width="1039" height="195" fill="white"/>
</clipPath>
</defs>
</svg>
